<svg width="512" height="512" viewBox="0 0 512 512" fill="none" xmlns="http://www.w3.org/2000/svg">
<path d="M228.155 289.59H63.573C33.217 289.59 8.60303 264.98 8.60303 234.622C8.60303 204.258 33.217 179.65 63.573 179.65C69.305 179.65 74.836 180.528 80.033 182.156C80.006 181.326 79.97 180.492 79.97 179.65C79.97 138.813 113.071 105.71 153.903 105.71C189.113 105.71 218.558 130.333 226.005 163.29C230.424 161.816 235.144 161.005 240.057 161.005C255.184 161.005 268.535 168.579 276.541 180.141C281.011 178.984 285.7 178.364 290.528 178.364C321.246 178.364 346.145 203.262 346.145 233.977C346.145 264.691 321.246 289.591 290.528 289.591H258.703" fill="#E9FAFF"/>
<path d="M293 178.364C288.171 178.364 283.482 178.983 279.013 180.141C271.008 168.58 257.658 161.005 242.529 161.005C237.616 161.005 232.896 161.816 228.477 163.29C221.031 130.332 191.586 105.71 156.375 105.71C148.391 105.71 140.71 106.991 133.505 109.333C130.231 122.456 128.484 136.183 128.484 150.319C128.484 208.14 157.557 259.161 201.875 289.589H230.626H261.173H292.998C323.716 289.589 348.615 264.689 348.615 233.975C348.617 203.262 323.718 178.364 293 178.364Z" fill="#C4EEFF"/>
<path d="M376.913 239.82H448.929C480.577 239.82 506.325 214.071 506.325 182.422C506.325 150.771 480.578 125.023 448.929 125.023C448.326 125.023 447.738 125.086 447.171 125.205C416.371 126.141 391.599 151.469 391.599 182.491C391.599 187.242 395.451 191.095 400.203 191.095C404.954 191.095 408.807 187.243 408.807 182.491C408.807 160.367 426.806 142.367 448.931 142.367C449.364 142.367 449.787 142.325 450.203 142.263C471.776 142.938 489.119 160.687 489.119 182.423C489.119 204.585 471.09 222.614 448.93 222.614H376.914C372.163 222.614 368.31 226.466 368.31 231.218C368.31 235.968 372.162 239.82 376.913 239.82Z" fill="#231F20"/>
<path d="M474.118 280.906C469.367 280.906 465.514 284.758 465.514 289.51C465.514 294.261 469.366 298.114 474.118 298.114H487.011C491.762 298.114 495.615 294.262 495.615 289.51C495.615 284.759 491.763 280.906 487.011 280.906H474.118Z" fill="#231F20"/>
<path d="M236.759 289.59C236.759 284.839 232.907 280.986 228.155 280.986H63.573C38.007 280.986 17.207 260.187 17.207 234.622C17.207 209.055 38.007 188.254 63.573 188.254C68.314 188.254 72.986 188.965 77.46 190.366C80.123 191.201 83.019 190.693 85.239 189.004C87.458 187.318 88.722 184.659 88.631 181.873L88.614 181.389C88.594 180.813 88.572 180.234 88.572 179.65C88.572 143.623 117.879 114.314 153.902 114.314C184.158 114.314 210.952 135.709 217.611 165.186C218.148 167.557 219.661 169.592 221.778 170.785C223.898 171.981 226.422 172.222 228.727 171.452C232.392 170.228 236.204 169.609 240.056 169.609C251.782 169.609 262.776 175.377 269.466 185.039C271.519 188.005 275.207 189.376 278.696 188.47C282.546 187.473 286.526 186.969 290.527 186.969C316.45 186.969 337.54 208.056 337.54 233.978C337.54 259.005 317.879 279.522 293.189 280.908H292.731C292.429 280.908 292.13 280.924 291.835 280.955C291.399 280.967 290.966 280.988 290.527 280.988H258.702C253.951 280.988 250.098 284.84 250.098 289.592C250.098 294.344 253.95 298.196 258.702 298.196H290.527C291.586 298.196 292.64 298.167 293.687 298.115H444.341C449.092 298.115 452.945 294.263 452.945 289.511C452.945 284.76 449.093 280.907 444.341 280.907H334.299C346.868 269.177 354.749 252.484 354.749 233.977C354.749 198.568 325.94 169.761 290.528 169.761C287.003 169.761 283.487 170.049 280.021 170.621C270.017 159.121 255.465 152.403 240.057 152.403C237.36 152.403 234.675 152.607 232.023 153.015C227.02 138.385 217.898 125.266 205.779 115.455C191.162 103.624 172.74 97.108 153.903 97.108C111.117 97.108 75.83 129.833 71.759 171.57C69.054 171.223 66.32 171.047 63.574 171.047C28.52 171.047 0 199.566 0 234.622C0 269.675 28.52 298.193 63.573 298.193H228.155C232.907 298.193 236.759 294.341 236.759 289.59Z" fill="#231F20"/>
</svg>
