<svg width="512" height="512" viewBox="0 0 512 512" fill="none" xmlns="http://www.w3.org/2000/svg">
<path d="M183.713 213.183C150.13 207.555 104.801 205.689 35.2133 212.359C37.2526 211.262 39.5965 210.044 42.233 208.741C53.248 203.295 69.3621 196.353 89.7022 190.399C130.379 178.494 187.932 170.552 255.427 186.434C323.833 202.529 382.198 198.509 423.479 190.454C444.119 186.426 460.492 181.39 471.721 177.353C477.336 175.334 481.666 173.564 484.602 172.295C484.702 172.251 484.801 172.208 484.898 172.166C484.813 172.656 484.718 173.182 484.611 173.742C483.886 177.54 482.616 182.903 480.442 189.111C476.089 201.538 468.142 217.274 453.766 230.671C425.202 257.289 370.321 275.474 264.844 237.647C260.387 236.048 255.972 234.387 251.5 232.705C232.447 225.538 212.372 217.987 183.713 213.183Z" fill="#92CDDE" stroke="#0061F3" stroke-width="5"/>
<path d="M262.815 282.201L264 280L262.815 282.201C298.671 301.508 343.255 303.469 378.609 300.715C396.33 299.335 411.828 296.762 422.899 294.534C425.894 293.932 428.566 293.354 430.871 292.832C428.122 295.145 424.645 297.936 420.514 300.99C409.133 309.401 392.821 319.779 373.072 327.679C333.635 343.453 280.582 349.343 225.453 309.966C196.573 289.337 152.522 258.818 88.8507 254.117C98.5548 252.081 112.3 249.978 129.071 249.499C163.715 248.509 211.266 254.444 262.815 282.201Z" fill="#92CDDE" stroke="#0061F3" stroke-width="5"/>
<path d="M318.796 157.372L318.775 157.367L318.754 157.362C257.309 143.388 193.858 140.581 131.431 149.067L129.461 138.244C193.332 129.279 258.315 132.121 321.174 146.636L321.174 146.636C371.05 158.148 395.015 150.629 406.52 141.507C409.873 138.988 412.667 135.802 414.726 132.149C416.791 128.485 418.072 124.432 418.488 120.247L418.5 120.123L418.5 119.998C418.5 119.628 418.536 119.26 418.61 118.898L418.62 118.849L418.628 118.801C419.931 110.768 418.025 102.546 413.32 95.9064L413.185 95.7166L413.018 95.5549C409.172 91.8352 404.554 89.0075 399.492 87.2724C394.474 85.552 389.141 84.9474 383.866 85.5001C364.353 85.5253 353.64 91.0626 347.834 97.4282C343.699 101.962 342.259 106.693 341.76 109.589L330.739 109.518C331.23 106.116 332.725 99.696 337.277 93.2994C343.817 84.1076 356.999 74.5 384 74.5C401.542 74.5 414.055 79.503 421.76 88.8709C425.1 93.3381 427.509 98.4302 428.846 103.846C430.186 109.279 430.42 114.926 429.532 120.451L429.517 120.544L429.509 120.639C429.026 126.384 427.355 131.967 424.602 137.034C421.858 142.084 418.099 146.511 413.561 150.038C399.742 159.772 383.024 164.518 366.151 163.497L366 165.992L366.042 163.492C350.114 163.223 334.267 161.17 318.796 157.372Z" fill="#418ABD" stroke="#0061F3" stroke-width="5"/>
<path d="M400.169 453.506L400 456V453.5C372.999 453.5 359.817 443.892 353.277 434.701C348.733 428.315 347.235 421.906 346.742 418.5H357.764C358.266 421.372 359.71 426.074 363.836 430.587C369.644 436.94 380.362 442.48 399.892 442.5C404.898 442.923 409.936 442.238 414.648 440.492C419.395 438.734 423.691 435.944 427.228 432.323L427.385 432.162L427.511 431.977C433.663 422.881 436.186 411.811 434.585 400.947L434.581 400.921L434.577 400.895C434.527 400.597 434.501 400.295 434.5 399.993L434.5 399.822L434.476 399.653C434.045 396.577 432.975 393.626 431.337 390.988C429.71 388.37 427.558 386.117 425.017 384.373C413.817 375.847 389.66 369.279 337.238 381.38C284.438 393.544 236.111 376.274 200.354 355.261C169.197 336.952 147.803 315.925 141.66 309.546L149.782 302.091C155.575 307.972 175.537 327.248 204.264 344.402C238.221 364.679 284.771 382.191 334.762 370.636C358.333 365.196 378.323 363.009 394.664 363.989C411.011 364.971 423.533 369.109 432.379 376.148L432.412 376.174L432.445 376.199C436.139 378.943 439.212 382.436 441.464 386.45C443.715 390.463 445.094 394.907 445.51 399.49L445.517 399.56L445.527 399.629C447.594 413.637 444.077 427.894 435.736 439.332C431.262 444.187 425.758 447.981 419.627 450.435C413.454 452.906 406.803 453.956 400.169 453.506Z" fill="#418ABD" stroke="#0061F3" stroke-width="5"/>
<path d="M261.5 413.466C233.771 412.704 204.681 399.477 181.791 385.756C162.221 374.025 147.434 362.088 142.283 357.765L149.53 349.47C154.383 353.494 168.061 364.43 185.952 375.324C207.415 388.394 235.34 401.653 261.5 402.461V413.466Z" fill="#418ABD" stroke="#0061F3" stroke-width="5"/>
<path d="M205.5 117.506C126.351 117.859 86.3986 134.944 77.024 139.566L71.3601 130.093C80.9634 125.152 122.082 106.865 205.5 106.505V117.506Z" fill="#418ABD" stroke="#0061F3" stroke-width="5"/>
<path d="M226.5 106.5H237.5V117.5H226.5V106.5Z" fill="#418ABD" stroke="#0061F3" stroke-width="5"/>
<path d="M90.5 298.5H101.5V309.5H90.5V298.5Z" fill="#92CDDE" stroke="#0061F3" stroke-width="5"/>
<path d="M90.5 330.5H101.5V341.5H90.5V330.5Z" fill="#92CDDE" stroke="#0061F3" stroke-width="5"/>
<path d="M74.5 314.5H85.5V325.5H74.5V314.5Z" fill="#92CDDE" stroke="#0061F3" stroke-width="5"/>
<path d="M106.5 314.5H117.5V325.5H106.5V314.5Z" fill="#92CDDE" stroke="#0061F3" stroke-width="5"/>
<path d="M290.5 426.5H301.5V437.5H290.5V426.5Z" fill="#92CDDE" stroke="#0061F3" stroke-width="5"/>
<path d="M290.5 458.5H301.5V469.5H290.5V458.5Z" fill="#92CDDE" stroke="#0061F3" stroke-width="5"/>
<path d="M274.5 442.5H285.5V453.5H274.5V442.5Z" fill="#92CDDE" stroke="#0061F3" stroke-width="5"/>
<path d="M306.5 442.5H317.5V453.5H306.5V442.5Z" fill="#92CDDE" stroke="#0061F3" stroke-width="5"/>
<path d="M282.5 58.5H293.5V69.5H282.5V58.5Z" fill="#92CDDE" stroke="#0061F3" stroke-width="5"/>
<path d="M282.5 90.5H293.5V101.5H282.5V90.5Z" fill="#92CDDE" stroke="#0061F3" stroke-width="5"/>
<path d="M266.5 74.5H277.5V85.5H266.5V74.5Z" fill="#92CDDE" stroke="#0061F3" stroke-width="5"/>
<path d="M298.5 74.5H309.5V85.5H298.5V74.5Z" fill="#92CDDE" stroke="#0061F3" stroke-width="5"/>
<path d="M66.5 58.5H77.5V69.5H66.5V58.5Z" fill="#92CDDE" stroke="#0061F3" stroke-width="5"/>
<path d="M66.5 90.5H77.5V101.5H66.5V90.5Z" fill="#92CDDE" stroke="#0061F3" stroke-width="5"/>
<path d="M50.5 74.5H61.5V85.5H50.5V74.5Z" fill="#92CDDE" stroke="#0061F3" stroke-width="5"/>
<path d="M82.5 74.5H93.5V85.5H82.5V74.5Z" fill="#92CDDE" stroke="#0061F3" stroke-width="5"/>
<path d="M371.255 234.34C357.151 234.262 343.093 232.775 329.289 229.903L331.602 219.131C383.36 229.649 418.989 218.823 441.853 204.965C460.439 193.7 470.461 180.512 473.857 175.45L483.469 180.784C483.398 180.892 483.323 181.004 483.245 181.119C482.201 182.664 480.626 184.857 478.485 187.479C474.202 192.725 467.662 199.681 458.583 206.623C440.449 220.487 412.13 234.338 371.255 234.34Z" fill="#418ABD" stroke="#0061F3" stroke-width="5"/>
</svg>
