<svg width="512" height="512" viewBox="0 0 512 512" fill="none" xmlns="http://www.w3.org/2000/svg">
<g clip-path="url(#clip0)">
<path d="M228.155 289.59H63.573C33.217 289.59 8.60303 264.98 8.60303 234.622C8.60303 204.258 33.217 179.65 63.573 179.65C69.305 179.65 74.836 180.528 80.033 182.156C80.006 181.326 79.97 180.492 79.97 179.65C79.97 138.813 113.071 105.71 153.903 105.71C189.113 105.71 218.558 130.333 226.005 163.29C230.424 161.816 235.144 161.005 240.057 161.005C255.184 161.005 268.535 168.579 276.541 180.141C281.011 178.984 285.7 178.364 290.528 178.364C321.246 178.364 346.145 203.262 346.145 233.977C346.145 264.691 321.246 289.591 290.528 289.591H258.703" fill="#83D4ED"/>
<path d="M293 178.364C288.171 178.364 283.482 178.983 279.013 180.141C271.008 168.58 257.658 161.005 242.529 161.005C237.616 161.005 232.896 161.816 228.477 163.29C221.031 130.332 191.586 105.71 156.375 105.71C148.391 105.71 140.71 106.991 133.505 109.333C130.231 122.456 128.484 136.183 128.484 150.319C128.484 208.14 157.557 259.161 201.875 289.589H230.626H261.173H292.998C323.716 289.589 348.615 264.689 348.615 233.975C348.617 203.262 323.718 178.364 293 178.364Z" fill="#9FDEF7"/>
<path d="M100.174 333.027H88.4451C83.6941 333.027 79.8411 336.879 79.8411 341.631C79.8411 346.382 83.6931 350.235 88.4451 350.235H100.174C104.925 350.235 108.778 346.383 108.778 341.631C108.778 336.879 104.926 333.027 100.174 333.027Z" fill="#231F20"/>
<path d="M266.553 333.027H128.486C123.735 333.027 119.882 336.879 119.882 341.631C119.882 346.382 123.734 350.235 128.486 350.235H266.554C288.715 350.235 306.745 368.265 306.745 390.427C306.745 412.161 289.4 429.909 267.826 430.584C267.41 430.523 266.987 430.48 266.554 430.48C244.431 430.48 226.432 412.481 226.432 390.356C226.432 385.605 222.58 381.752 217.828 381.752C213.077 381.752 209.224 385.604 209.224 390.356C209.224 421.379 233.995 446.708 264.794 447.642C265.362 447.76 265.95 447.824 266.552 447.824C298.202 447.824 323.95 422.077 323.95 390.427C323.951 358.776 298.202 333.027 266.553 333.027Z" fill="#231F20"/>
<path d="M454.602 333.027H340.192C335.441 333.027 331.588 336.879 331.588 341.631C331.588 346.382 335.44 350.235 340.192 350.235H454.602C476.763 350.235 494.793 368.265 494.793 390.427C494.793 412.161 477.448 429.909 455.874 430.584C455.458 430.523 455.035 430.48 454.602 430.48C432.478 430.48 414.478 412.481 414.478 390.356C414.478 385.605 410.626 381.752 405.874 381.752C401.123 381.752 397.27 385.604 397.27 390.356C397.27 421.379 422.042 446.708 452.842 447.642C453.41 447.76 453.998 447.824 454.6 447.824C486.25 447.824 511.998 422.077 511.998 390.427C512 358.776 486.251 333.027 454.602 333.027Z" fill="#231F20"/>
<path d="M254.717 130.247C259.468 130.247 263.321 126.395 263.321 121.643C263.321 99.519 281.319 81.52 303.443 81.52C303.876 81.52 304.299 81.478 304.715 81.416C326.29 82.091 343.636 99.839 343.636 121.573C343.636 134.946 337.009 147.406 325.908 154.906C321.971 157.567 320.935 162.914 323.596 166.851C325.259 169.312 327.97 170.639 330.733 170.639C332.39 170.639 334.066 170.161 335.542 169.163C351.386 158.46 360.844 140.669 360.844 121.572C360.844 89.922 335.094 64.175 303.444 64.175C302.841 64.175 302.253 64.238 301.686 64.357C270.887 65.293 246.116 90.621 246.116 121.643C246.113 126.395 249.966 130.247 254.717 130.247Z" fill="#231F20"/>
<path d="M376.913 239.82H448.929C480.577 239.82 506.325 214.071 506.325 182.422C506.325 150.771 480.578 125.023 448.929 125.023C448.326 125.023 447.738 125.086 447.171 125.205C416.371 126.141 391.599 151.469 391.599 182.491C391.599 187.242 395.451 191.095 400.203 191.095C404.954 191.095 408.807 187.243 408.807 182.491C408.807 160.367 426.806 142.367 448.931 142.367C449.364 142.367 449.787 142.325 450.203 142.263C471.776 142.938 489.119 160.687 489.119 182.423C489.119 204.585 471.09 222.614 448.93 222.614H376.914C372.163 222.614 368.31 226.466 368.31 231.218C368.31 235.968 372.162 239.82 376.913 239.82Z" fill="#231F20"/>
<path d="M474.118 280.906C469.367 280.906 465.514 284.758 465.514 289.51C465.514 294.261 469.366 298.114 474.118 298.114H487.011C491.762 298.114 495.615 294.262 495.615 289.51C495.615 284.759 491.763 280.906 487.011 280.906H474.118Z" fill="#231F20"/>
<path d="M236.759 289.59C236.759 284.839 232.907 280.986 228.155 280.986H63.573C38.007 280.986 17.207 260.187 17.207 234.622C17.207 209.055 38.007 188.254 63.573 188.254C68.314 188.254 72.986 188.965 77.46 190.366C80.123 191.201 83.019 190.693 85.239 189.004C87.458 187.318 88.722 184.659 88.631 181.873L88.614 181.389C88.594 180.813 88.572 180.234 88.572 179.65C88.572 143.623 117.879 114.314 153.902 114.314C184.158 114.314 210.952 135.709 217.611 165.186C218.148 167.557 219.661 169.592 221.778 170.785C223.898 171.981 226.422 172.222 228.727 171.452C232.392 170.228 236.204 169.609 240.056 169.609C251.782 169.609 262.776 175.377 269.466 185.039C271.519 188.005 275.207 189.376 278.696 188.47C282.546 187.473 286.526 186.969 290.527 186.969C316.45 186.969 337.54 208.056 337.54 233.978C337.54 259.005 317.879 279.522 293.189 280.908H292.731C292.429 280.908 292.13 280.924 291.835 280.955C291.399 280.967 290.966 280.988 290.527 280.988H258.702C253.951 280.988 250.098 284.84 250.098 289.592C250.098 294.344 253.95 298.196 258.702 298.196H290.527C291.586 298.196 292.64 298.167 293.687 298.115H444.341C449.092 298.115 452.945 294.263 452.945 289.511C452.945 284.76 449.093 280.907 444.341 280.907H334.299C346.868 269.177 354.749 252.484 354.749 233.977C354.749 198.568 325.94 169.761 290.528 169.761C287.003 169.761 283.487 170.049 280.021 170.621C270.017 159.121 255.465 152.403 240.057 152.403C237.36 152.403 234.675 152.607 232.023 153.015C227.02 138.385 217.898 125.266 205.779 115.455C191.162 103.624 172.74 97.108 153.903 97.108C111.117 97.108 75.83 129.833 71.759 171.57C69.054 171.223 66.32 171.047 63.574 171.047C28.52 171.047 0 199.566 0 234.622C0 269.675 28.52 298.193 63.573 298.193H228.155C232.907 298.193 236.759 294.341 236.759 289.59Z" fill="#231F20"/>
</g>
<defs>
<clipPath id="clip0">
<rect width="511.999" height="511.999" fill="white"/>
</clipPath>
</defs>
</svg>
