<svg width="512" height="512" viewBox="0 0 512 512" fill="none" xmlns="http://www.w3.org/2000/svg">
<g clip-path="url(#clip0)">
<path d="M189.24 229.256C189.72 229.256 190.184 229.312 190.66 229.328C190.973 209.84 198.029 191.063 210.628 176.193C223.227 161.322 240.59 151.277 259.761 147.768C278.933 144.258 298.728 147.5 315.778 156.942C332.828 166.384 346.079 181.443 353.276 199.556C361.511 192.409 371.393 187.422 382.034 185.043C392.676 182.665 403.741 182.97 414.235 185.932C424.729 188.893 434.322 194.417 442.15 202.007C449.978 209.597 455.796 219.015 459.08 229.412C460.092 229.34 461.1 229.256 462.128 229.256C473.427 229.365 484.226 233.93 492.178 241.959C500.129 249.987 504.59 260.83 504.59 272.13C504.59 283.43 500.129 294.273 492.178 302.301C484.226 310.33 473.427 314.895 462.128 315.004H189.24C177.941 314.895 167.142 310.33 159.19 302.301C151.239 294.273 146.778 283.43 146.778 272.13C146.778 260.83 151.239 249.987 159.19 241.959C167.142 233.93 177.941 229.365 189.24 229.256V229.256Z" fill="#BEEBFA"/>
<path d="M45.884 162.208C46.816 162.208 47.728 162.284 48.644 162.348C51.6233 152.919 56.9003 144.379 64.0001 137.496C71.0998 130.614 79.7995 125.604 89.3163 122.919C98.833 120.233 108.868 119.956 118.518 122.113C128.169 124.269 137.131 128.791 144.6 135.272C150.666 120.002 161.492 107.093 175.472 98.4597C189.452 89.8263 205.842 85.928 222.212 87.3426C238.582 88.7572 254.061 95.4096 266.353 106.313C278.644 117.217 287.095 131.792 290.452 147.876C278.391 145.576 265.972 145.946 254.069 148.96C242.166 151.975 231.069 157.56 221.556 165.324C212.044 173.088 204.348 182.842 199.011 193.9C193.673 204.958 190.822 217.05 190.66 229.328C190.184 229.328 189.72 229.256 189.24 229.256C178.816 229.252 168.752 233.066 160.948 239.976H45.884C35.5713 239.976 25.681 235.879 18.3889 228.587C11.0967 221.295 7 211.405 7 201.092C7 190.779 11.0967 180.889 18.3889 173.597C25.681 166.305 35.5713 162.208 45.884 162.208V162.208Z" fill="#9EE2F8"/>
<path d="M290.452 147.876C304.43 150.499 317.518 156.612 328.501 165.647C339.485 174.682 348.007 186.346 353.276 199.556C360.623 193.169 369.298 188.496 378.674 185.875C388.049 183.254 397.89 182.75 407.484 184.4V173.076C407.484 169.302 408.228 165.565 409.673 162.078C411.118 158.592 413.235 155.424 415.904 152.756L442.412 126.244L415.904 99.736C413.235 97.0678 411.118 93.9 409.673 90.4135C408.228 86.9269 407.484 83.19 407.484 79.416V41.924H370C362.382 41.9279 355.075 38.9065 349.684 33.524L323.164 6.99597L296.652 33.508C291.26 38.8911 283.951 41.9125 276.332 41.908H238.84V79.4C238.836 83.0466 238.137 86.6591 236.78 90.044C250.135 93.9002 262.188 101.321 271.643 111.51C281.099 121.699 287.602 134.271 290.452 147.876V147.876Z" fill="#FFB655"/>
<path d="M290.452 147.876C302.628 150.161 314.151 155.098 324.204 162.339C334.256 169.579 342.591 178.944 348.616 189.768C359.137 185.557 368.447 178.799 375.711 170.102C382.976 161.405 387.967 151.039 390.237 139.937C392.506 128.834 391.984 117.342 388.716 106.491C385.448 95.6407 379.536 85.7714 371.513 77.7692C363.489 69.767 353.603 63.8824 342.744 60.6436C331.885 57.4048 320.391 56.9132 309.294 59.2129C298.198 61.5126 287.847 66.5317 279.169 73.8195C270.491 81.1074 263.759 90.436 259.576 100.968C275.442 112.125 286.478 128.892 290.452 147.876V147.876Z" fill="#FFE477"/>
<path d="M359.628 133.244C358.709 133.245 357.798 133.064 356.949 132.712C356.099 132.361 355.327 131.845 354.677 131.195C354.027 130.545 353.511 129.773 353.16 128.923C352.808 128.074 352.628 127.163 352.628 126.244C352.613 118.436 349.504 110.952 343.981 105.433C338.458 99.914 330.972 96.8095 323.164 96.8C321.308 96.8 319.527 96.0625 318.214 94.7497C316.902 93.437 316.164 91.6565 316.164 89.8C316.164 87.9435 316.902 86.163 318.214 84.8502C319.527 83.5375 321.308 82.8 323.164 82.8C334.684 82.8137 345.728 87.3946 353.875 95.5384C362.023 103.682 366.609 114.724 366.628 126.244C366.628 128.101 365.891 129.881 364.578 131.194C363.265 132.506 361.485 133.244 359.628 133.244V133.244Z" fill="#FFB655"/>
<path d="M221 396H7C5.14348 396 3.36301 395.262 2.05025 393.95C0.737498 392.637 0 390.857 0 389C0 387.143 0.737498 385.363 2.05025 384.05C3.36301 382.738 5.14348 382 7 382H221C224.58 382 228.014 380.578 230.546 378.046C233.078 375.514 234.5 372.08 234.5 368.5C234.5 364.92 233.078 361.486 230.546 358.954C228.014 356.422 224.58 355 221 355H218.5C214.921 355.004 211.49 356.428 208.959 358.959C206.428 361.49 205.004 364.921 205 368.5C205 370.357 204.263 372.137 202.95 373.45C201.637 374.762 199.857 375.5 198 375.5C196.143 375.5 194.363 374.762 193.05 373.45C191.737 372.137 191 370.357 191 368.5C191.008 361.209 193.909 354.219 199.064 349.064C204.219 343.908 211.209 341.008 218.5 341H221C228.293 341 235.288 343.897 240.445 349.055C245.603 354.212 248.5 361.207 248.5 368.5C248.5 375.793 245.603 382.788 240.445 387.945C235.288 393.103 228.293 396 221 396Z" fill="#BEEBFA"/>
<path d="M356.324 433.504H7C5.14348 433.504 3.36301 432.766 2.05025 431.454C0.737498 430.141 0 428.36 0 426.504C0 424.647 0.737498 422.867 2.05025 421.554C3.36301 420.241 5.14348 419.504 7 419.504H356.324C359.904 419.504 363.338 418.082 365.87 415.55C368.402 413.018 369.824 409.584 369.824 406.004C369.824 402.423 368.402 398.99 365.87 396.458C363.338 393.926 359.904 392.504 356.324 392.504H353.824C350.245 392.508 346.814 393.932 344.283 396.463C341.752 398.993 340.328 402.425 340.324 406.004C340.324 407.86 339.586 409.641 338.274 410.954C336.961 412.266 335.181 413.004 333.324 413.004C331.467 413.004 329.687 412.266 328.374 410.954C327.062 409.641 326.324 407.86 326.324 406.004C326.332 398.713 329.232 391.723 334.388 386.568C339.543 381.412 346.533 378.512 353.824 378.504H356.324C363.617 378.504 370.612 381.401 375.769 386.558C380.927 391.716 383.824 398.71 383.824 406.004C383.824 413.297 380.927 420.292 375.769 425.449C370.612 430.607 363.617 433.504 356.324 433.504V433.504Z" fill="#9EE2F8"/>
<path d="M421.16 512H418.66C411.369 511.992 404.379 509.092 399.224 503.936C394.068 498.781 391.168 491.791 391.16 484.5C391.16 482.643 391.898 480.863 393.21 479.55C394.523 478.238 396.303 477.5 398.16 477.5C400.017 477.5 401.797 478.238 403.11 479.55C404.422 480.863 405.16 482.643 405.16 484.5C405.164 488.079 406.588 491.51 409.119 494.041C411.65 496.572 415.081 497.996 418.66 498H421.16C424.74 498 428.174 496.578 430.706 494.046C433.238 491.514 434.66 488.08 434.66 484.5C434.66 480.92 433.238 477.486 430.706 474.954C428.174 472.422 424.74 471 421.16 471H7C5.14348 471 3.36301 470.262 2.05025 468.95C0.737498 467.637 0 465.857 0 464C0 462.143 0.737498 460.363 2.05025 459.05C3.36301 457.738 5.14348 457 7 457H421.16C428.453 457 435.448 459.897 440.605 465.055C445.763 470.212 448.66 477.207 448.66 484.5C448.66 491.793 445.763 498.788 440.605 503.945C435.448 509.103 428.453 512 421.16 512V512Z" fill="#BEEBFA"/>
<path d="M368.996 322C370.852 322 372.633 321.262 373.946 319.95C375.258 318.637 375.996 316.857 375.996 315C375.996 313.143 375.258 311.363 373.946 310.05C372.633 308.738 370.852 308 368.996 308H348.996C347.139 308 345.359 308.738 344.046 310.05C342.733 311.363 341.996 313.143 341.996 315C341.996 316.857 342.733 318.637 344.046 319.95C345.359 321.262 347.139 322 348.996 322H368.996Z" fill="black"/>
<path d="M463.976 222.292C459.763 211.637 453.079 202.135 444.475 194.568C435.872 187.001 425.594 181.586 414.488 178.768V173.076C414.479 170.221 415.037 167.392 416.129 164.754C417.222 162.116 418.827 159.721 420.852 157.708L447.364 131.196C448.676 129.883 449.413 128.102 449.413 126.246C449.413 124.39 448.676 122.609 447.364 121.296L420.852 94.8C418.828 92.7856 417.223 90.3899 416.131 87.7513C415.038 85.1127 414.48 82.2837 414.488 79.428V41.92C414.487 40.0638 413.749 38.2839 412.437 36.9714C411.124 35.6589 409.344 34.921 407.488 34.92H370C367.145 34.928 364.317 34.3701 361.679 33.2784C359.041 32.1868 356.646 30.5831 354.632 28.56L328.112 2.04798C327.463 1.39754 326.691 0.881521 325.842 0.529448C324.993 0.177375 324.083 -0.00384521 323.164 -0.00384521C322.245 -0.00384521 321.335 0.177375 320.486 0.529448C319.637 0.881521 318.865 1.39754 318.216 2.04798L291.704 28.56C289.689 30.5835 287.293 32.1875 284.655 33.2792C282.016 34.3709 279.187 34.9286 276.332 34.92H238.84C236.984 34.921 235.204 35.6589 233.891 36.9714C232.579 38.2839 231.841 40.0638 231.84 41.92V79.412C231.808 80.166 231.736 80.9177 231.624 81.664C226.365 80.6127 221.015 80.0768 215.652 80.064C202.228 80.0665 189.002 83.3017 177.092 89.496C175.509 90.3892 174.335 91.8633 173.819 93.6066C173.303 95.3499 173.485 97.2255 174.328 98.8366C175.17 100.448 176.606 101.668 178.333 102.239C180.059 102.81 181.939 102.687 183.576 101.896C193.47 96.71 204.481 94.0187 215.652 94.056C229.852 94.1109 243.696 98.5019 255.332 106.641C266.967 114.781 275.839 126.28 280.76 139.6C278.828 139.48 276.888 139.4 274.932 139.4C252.161 139.5 230.241 148.065 213.434 163.43C196.628 178.795 186.136 199.861 184 222.532C174.649 223.513 165.77 227.134 158.4 232.972H45.884C41.6975 232.972 37.5519 232.147 33.6841 230.545C29.8162 228.943 26.3018 226.595 23.3414 223.635C20.3811 220.674 18.0328 217.16 16.4307 213.292C14.8286 209.424 14.004 205.279 14.004 201.092C14.004 196.905 14.8286 192.76 16.4307 188.892C18.0328 185.024 20.3811 181.51 23.3414 178.549C26.3018 175.589 29.8162 173.241 33.6841 171.639C37.5519 170.037 41.6975 169.212 45.884 169.212C46.524 169.212 47.152 169.26 48.168 169.332C49.7328 169.431 51.2859 169.005 52.5813 168.122C53.8768 167.239 54.8406 165.949 55.32 164.456C57.95 156.136 62.6072 148.6 68.8727 142.526C75.1381 136.453 82.8152 132.032 91.2132 129.663C99.6112 127.293 108.467 127.048 116.983 128.95C125.499 130.852 133.409 134.842 140 140.56C140.844 141.293 141.852 141.813 142.939 142.077C144.026 142.341 145.16 142.34 146.247 142.075C147.333 141.811 148.341 141.289 149.184 140.555C150.028 139.821 150.684 138.896 151.096 137.856C151.34 137.24 151.592 136.624 151.856 136.02C152.347 134.884 152.528 133.638 152.381 132.41C152.234 131.181 151.764 130.013 151.019 129.025C150.274 128.037 149.281 127.264 148.14 126.784C146.999 126.305 145.751 126.136 144.524 126.296C136.336 120.382 126.911 116.406 116.962 114.669C107.012 112.932 96.7975 113.479 87.0902 116.269C77.3829 119.059 68.4366 124.019 60.9274 130.773C53.4182 137.528 47.5424 145.901 43.744 155.26C31.7675 155.808 20.4814 161.023 12.3011 169.787C4.12075 178.552 -0.303834 190.17 -0.0257263 202.156C0.252381 214.142 5.21108 225.543 13.7891 233.919C22.3671 242.294 33.883 246.98 45.872 246.972H146.236C141.787 254.541 139.419 263.153 139.371 271.933C139.323 280.713 141.597 289.349 145.963 296.967C150.33 304.584 156.632 310.912 164.232 315.308C171.833 319.704 180.46 322.013 189.24 322H299C300.857 322 302.637 321.262 303.95 319.95C305.262 318.637 306 316.856 306 315C306 313.143 305.262 311.363 303.95 310.05C302.637 308.737 300.857 308 299 308H189.24C179.728 307.958 170.623 304.139 163.927 297.384C157.23 290.628 153.492 281.49 153.534 271.978C153.576 262.466 157.395 253.361 164.15 246.665C170.905 239.968 180.044 236.23 189.556 236.272H189.596L190.432 236.32C191.361 236.351 192.286 236.197 193.155 235.866C194.023 235.535 194.817 235.035 195.49 234.394C196.163 233.753 196.701 232.985 197.074 232.133C197.446 231.282 197.646 230.365 197.66 229.436C197.947 211.567 204.417 194.349 215.969 180.713C227.522 167.077 243.443 157.866 261.023 154.647C278.602 151.429 296.754 154.402 312.388 163.06C328.022 171.718 340.173 185.527 346.772 202.136C347.184 203.175 347.84 204.1 348.683 204.834C349.527 205.568 350.534 206.089 351.62 206.353C352.706 206.617 353.84 206.618 354.927 206.354C356.013 206.09 357.02 205.569 357.864 204.836C364.398 199.162 372.105 195 380.434 192.649C388.762 190.298 397.507 189.816 406.044 191.236H406.108C416.798 193.004 426.786 197.706 434.96 204.818C443.134 211.93 449.172 221.173 452.4 231.516C452.955 233.04 453.995 234.34 455.36 235.216C456.724 236.093 458.339 236.497 459.956 236.368C460.672 236.312 461.392 236.26 462.124 236.26C471.638 236.26 480.762 240.039 487.489 246.767C494.217 253.494 497.996 262.618 497.996 272.132C497.996 281.646 494.217 290.77 487.489 297.497C480.762 304.225 471.638 308.004 462.124 308.004H419C417.143 308.004 415.363 308.741 414.05 310.054C412.738 311.367 412 313.147 412 315.004C412 316.86 412.738 318.641 414.05 319.954C415.363 321.266 417.143 322.004 419 322.004H462.128C475.206 322.02 487.767 316.899 497.105 307.744C506.443 298.589 511.812 286.132 512.054 273.056C512.297 259.981 507.393 247.333 498.401 237.838C489.408 228.343 477.045 222.76 463.976 222.292V222.292ZM296.148 141.892C291.604 124.95 281.829 109.874 268.216 98.812C272.545 90.1294 278.87 82.5959 286.671 76.8284C294.473 71.0608 303.53 67.2234 313.1 65.6304C322.671 64.0374 332.482 64.7341 341.731 67.6634C350.981 70.5927 359.404 75.6714 366.313 82.4834C373.221 89.2954 378.418 97.647 381.477 106.854C384.536 116.061 385.37 125.862 383.912 135.454C382.453 145.046 378.744 154.156 373.086 162.038C367.429 169.919 359.985 176.349 351.364 180.8C338.668 161.194 318.883 147.256 296.148 141.9V141.892ZM376.948 179.132C384.556 171.421 390.415 162.162 394.124 151.985C397.833 141.807 399.307 130.95 398.444 120.152C397.582 109.354 394.404 98.8681 389.126 89.4083C383.848 79.9486 376.594 71.7367 367.859 65.3314C359.123 58.9261 349.11 54.4777 338.501 52.2888C327.892 50.0998 316.936 50.2218 306.378 52.6464C295.82 55.071 285.909 59.7413 277.318 66.3395C268.727 72.9377 261.658 81.3091 256.592 90.884C252.956 88.845 249.174 87.0788 245.276 85.6C245.644 83.5591 245.833 81.4898 245.84 79.416V48.92H276.332C281.027 48.9338 285.677 48.016 290.014 46.2198C294.352 44.4237 298.29 41.7848 301.6 38.456L323.164 16.896L344.728 38.456C348.039 41.7854 351.977 44.4247 356.315 46.2209C360.653 48.0171 365.305 48.9345 370 48.92H400.496V79.412C400.483 84.1069 401.402 88.7578 403.198 93.0956C404.994 97.4334 407.632 101.372 410.96 104.684L432.52 126.244L410.96 147.808C407.632 151.119 404.993 155.056 403.197 159.394C401.401 163.731 400.483 168.382 400.496 173.076V176.616C399.12 176.54 397.748 176.46 396.36 176.46C389.801 176.474 383.274 177.376 376.956 179.14L376.948 179.132Z" fill="black"/>
<path d="M352.628 126.244C352.628 128.101 353.366 129.881 354.678 131.194C355.991 132.506 357.772 133.244 359.628 133.244C361.485 133.244 363.265 132.506 364.578 131.194C365.891 129.881 366.628 128.101 366.628 126.244C366.609 114.724 362.023 103.682 353.875 95.5384C345.728 87.3946 334.684 82.8137 323.164 82.8C321.308 82.8 319.527 83.5375 318.214 84.8502C316.902 86.163 316.164 87.9435 316.164 89.8C316.164 91.6565 316.902 93.437 318.214 94.7497C319.527 96.0625 321.308 96.8 323.164 96.8C330.972 96.8095 338.458 99.914 343.981 105.433C349.504 110.952 352.613 118.436 352.628 126.244Z" fill="black"/>
<path d="M221 382H7C5.14348 382 3.36301 382.738 2.05025 384.05C0.737498 385.363 0 387.143 0 389C0 390.857 0.737498 392.637 2.05025 393.95C3.36301 395.262 5.14348 396 7 396H221C228.293 396 235.288 393.103 240.445 387.945C245.603 382.788 248.5 375.793 248.5 368.5C248.5 361.207 245.603 354.212 240.445 349.055C235.288 343.897 228.293 341 221 341H218.5C211.209 341.008 204.219 343.908 199.064 349.064C193.909 354.219 191.008 361.209 191 368.5C191 370.357 191.737 372.137 193.05 373.45C194.363 374.762 196.143 375.5 198 375.5C199.857 375.5 201.637 374.762 202.95 373.45C204.263 372.137 205 370.357 205 368.5C205.004 364.921 206.428 361.49 208.959 358.959C211.49 356.428 214.921 355.004 218.5 355H221C224.58 355 228.014 356.422 230.546 358.954C233.078 361.486 234.5 364.92 234.5 368.5C234.5 372.08 233.078 375.514 230.546 378.046C228.014 380.578 224.58 382 221 382V382Z" fill="black"/>
<path d="M7 433.504H356.324C363.617 433.504 370.612 430.607 375.769 425.449C380.927 420.292 383.824 413.297 383.824 406.004C383.824 398.71 380.927 391.716 375.769 386.558C370.612 381.401 363.617 378.504 356.324 378.504H353.824C346.533 378.512 339.543 381.412 334.388 386.568C329.232 391.723 326.332 398.713 326.324 406.004C326.324 407.86 327.062 409.641 328.374 410.954C329.687 412.266 331.467 413.004 333.324 413.004C335.181 413.004 336.961 412.266 338.274 410.954C339.586 409.641 340.324 407.86 340.324 406.004C340.328 402.425 341.752 398.993 344.283 396.463C346.814 393.932 350.245 392.508 353.824 392.504H356.324C359.904 392.504 363.338 393.926 365.87 396.458C368.402 398.99 369.824 402.423 369.824 406.004C369.824 409.584 368.402 413.018 365.87 415.55C363.338 418.082 359.904 419.504 356.324 419.504H7C5.14348 419.504 3.36301 420.241 2.05025 421.554C0.737498 422.867 0 424.647 0 426.504C0 428.36 0.737498 430.141 2.05025 431.454C3.36301 432.766 5.14348 433.504 7 433.504V433.504Z" fill="black"/>
<path d="M421.16 457.004H7C5.14348 457.004 3.36301 457.742 2.05025 459.054C0.737498 460.367 0 462.147 0 464.004C0 465.861 0.737498 467.641 2.05025 468.954C3.36301 470.266 5.14348 471.004 7 471.004H421.16C424.74 471.004 428.174 472.426 430.706 474.958C433.238 477.49 434.66 480.924 434.66 484.504C434.66 488.084 433.238 491.518 430.706 494.05C428.174 496.582 424.74 498.004 421.16 498.004H418.66C415.081 498 411.65 496.576 409.119 494.045C406.588 491.514 405.164 488.083 405.16 484.504C405.16 482.647 404.422 480.867 403.11 479.554C401.797 478.242 400.017 477.504 398.16 477.504C396.303 477.504 394.523 478.242 393.21 479.554C391.898 480.867 391.16 482.647 391.16 484.504C391.17 491.794 394.07 498.783 399.225 503.938C404.381 509.092 411.37 511.992 418.66 512H421.16C428.453 512 435.448 509.103 440.605 503.945C445.763 498.788 448.66 491.793 448.66 484.5C448.66 477.207 445.763 470.212 440.605 465.055C435.448 459.897 428.453 457 421.16 457V457.004Z" fill="black"/>
</g>
<defs>
<clipPath id="clip0">
<rect width="512" height="512" fill="white"/>
</clipPath>
</defs>
</svg>
