<svg width="512" height="512" viewBox="0 0 512 512" fill="none" xmlns="http://www.w3.org/2000/svg">
<path d="M416 512H96C42.9766 512 0 469.023 0 416V96C0 42.9766 42.9766 0 96 0H416C469.023 0 512 42.9766 512 96V416C512 469.023 469.023 512 416 512Z" fill="white"/>
<path d="M170.656 170.672C170.656 182.449 161.105 192 149.328 192C137.551 192 128 182.449 128 170.672C128 158.895 137.551 149.344 149.328 149.344C161.105 149.344 170.656 158.895 170.656 170.672Z" fill="#D3D3D3"/>
<path d="M170.656 256C170.656 267.777 161.105 277.328 149.328 277.328C137.551 277.328 128 267.777 128 256C128 244.223 137.551 234.672 149.328 234.672C161.105 234.672 170.656 244.223 170.656 256Z" fill="#D3D3D3"/>
<path d="M170.656 341.328C170.656 353.105 161.105 362.656 149.328 362.656C137.551 362.656 128 353.105 128 341.328C128 329.551 137.551 320 149.328 320C161.105 320 170.656 329.551 170.656 341.328Z" fill="#D3D3D3"/>
<path d="M373.328 181.328H213.328C207.441 181.328 202.656 176.559 202.656 170.656C202.656 164.754 207.426 160 213.328 160H373.328C379.215 160 384 164.77 384 170.672C384 176.574 379.215 181.328 373.328 181.328Z" fill="#D3D3D3"/>
<path d="M373.328 266.672H213.328C207.441 266.672 202.656 261.902 202.656 256C202.656 250.113 207.426 245.328 213.328 245.328H373.328C379.215 245.328 384 250.098 384 256C384 261.887 379.215 266.672 373.328 266.672Z" fill="#D3D3D3"/>
<path d="M373.328 352H213.328C207.441 352 202.656 347.23 202.656 341.328C202.656 335.441 207.426 330.656 213.328 330.656H373.328C379.215 330.656 384 335.426 384 341.328C384 347.23 379.215 352 373.328 352Z" fill="#D3D3D3"/>
</svg>
