<svg width="415" height="447" viewBox="0 0 415 447" fill="none" xmlns="http://www.w3.org/2000/svg">
<path d="M357.755 96.454L336.288 110.765L300.509 103.609L279.042 96.454L250.419 103.609L228.952 96.454L243.263 67.8311H271.886L299.936 53.8062C321.569 64.5038 341.14 78.9437 357.755 96.454Z" fill="#03AA6F"/>
<path d="M193.174 67.8311L186.018 89.2985L164.551 96.454L143.084 132.232L107.305 153.7L57.2158 160.855V182.323L71.5269 196.634V225.257L50.0611 210.945L28.5937 196.634L16.1429 159.21C37.5738 108.139 78.5405 67.7663 129.918 47.0794L150.24 60.6756L193.174 67.8311Z" fill="#03AA6F"/>
<path d="M207.486 268.19L200.33 303.968L171.707 332.591V354.058L143.084 375.525V411.303L121.618 404.148L107.306 368.369V296.813L71.5277 289.657L57.2166 261.034V239.567L71.5277 225.256L92.995 203.788L107.306 232.411H157.396L178.863 268.19H207.486Z" fill="#03AA6F"/>
<path d="M388.524 138.171C427.587 207.861 423.136 293.793 377.075 359.067L357.755 339.747V311.124L343.444 282.501L329.133 253.878V225.255L307.666 210.944L279.043 218.099L228.953 196.632L221.798 146.543L243.265 125.075H286.199L300.51 146.543L343.444 153.698L386.378 139.387L388.524 138.171Z" fill="#03AA6F"/>
<path d="M250.42 103.61L279.043 96.454L300.51 103.61L336.288 110.765L357.756 96.454C369.741 108.998 380.082 123.016 388.525 138.171L386.379 139.388L343.445 153.699L300.511 146.543L286.2 125.076H243.266L221.798 146.543L228.954 196.633L279.043 218.1L307.666 210.945L329.134 225.256V253.879L343.445 282.502L357.756 311.125V339.747L377.076 359.068C310.994 452.707 181.511 475.04 87.8788 408.957C8.35756 352.827 -21.4747 248.977 16.1429 159.209L28.5937 196.633L50.0611 210.944L71.5285 225.255L57.2166 239.567V261.034L71.5277 289.657L107.306 296.813V368.37L121.617 404.148L143.084 411.303V375.525L171.707 354.058V332.59L200.33 303.967L207.486 268.189H178.863L157.396 232.411H107.306L92.995 203.788L71.5277 225.255V196.632L57.2166 182.322V160.855L107.306 153.699L143.084 132.232L164.552 96.4532L186.019 89.2977L193.175 67.8303L150.241 60.6748L129.919 47.0786C184.946 24.9174 246.828 27.3645 299.938 53.8054L271.887 67.8303H243.264L228.953 96.4532L250.42 103.61Z" fill="#86DAF1"/>
<g clip-path="url(#clip0)">
<path d="M293.904 16.3463C280.268 10.5921 264.716 16.4736 259.237 29.4569C257.593 33.3544 256.985 37.6508 257.485 41.8994L263.064 85.6558C263.138 86.239 263.533 86.7477 264.096 86.9853C264.659 87.2229 265.299 87.1511 265.769 86.7972L301.02 60.2568C304.4 57.6586 307.054 54.2259 308.699 50.3284C314.177 37.3453 307.54 22.1005 293.904 16.3463ZM279 51.6658C272.182 48.7887 268.863 41.1664 271.603 34.6748C274.342 28.1832 282.118 25.2425 288.936 28.1196C295.754 30.9967 299.073 38.6189 296.333 45.1106C293.594 51.6022 285.818 54.5429 279 51.6658Z" fill="#FF435B"/>
</g>
<defs>
<clipPath id="clip0">
<rect x="256.808" y="0.692627" width="80.5269" height="76.6707" transform="rotate(22.8787 256.808 0.692627)" fill="white"/>
</clipPath>
</defs>
</svg>
