<?xml version="1.0" encoding="utf-8"?>
<!-- Generator: Adobe Illustrator 22.1.0, SVG Export Plug-In . SVG Version: 6.00 Build 0)  -->
<svg version="1.1" id="Calque_1" xmlns="http://www.w3.org/2000/svg" xmlns:xlink="http://www.w3.org/1999/xlink" x="0px" y="0px"
	 viewBox="0 0 415 447" style="enable-background:new 0 0 415 447;" xml:space="preserve">
<style type="text/css">
	.st0{fill:none;}
	.st1{fill:#FDFFFF;}
	.st2{clip-path:url(#SVGID_2_);}
</style>
<path class="st0" d="M357.8,96.5l-21.5,14.3l-35.8-7.2L279,96.5l-28.6,7.2L229,96.5l14.3-28.6h28.6l28.1-14
	C321.6,64.5,341.1,78.9,357.8,96.5z"/>
<path class="st0" d="M193.2,67.8L186,89.3l-21.5,7.2l-21.5,35.8l-35.8,21.5l-50.1,7.2v21.5l14.3,14.3v28.6l-21.5-14.3l-21.5-14.3
	l-12.5-37.4c21.4-51.1,62.4-91.4,113.8-112.1l20.3,13.6L193.2,67.8z"/>
<path class="st0" d="M207.5,268.2l-7.2,35.8l-28.6,28.6v21.5l-28.6,21.5v35.8l-21.5-7.2l-14.3-35.8v-71.6l-35.8-7.2L57.2,261v-21.5
	l14.3-14.3L93,203.8l14.3,28.6h50.1l21.5,35.8H207.5z"/>
<path class="st0" d="M388.5,138.2c39.1,69.7,34.6,155.6-11.4,220.9l-19.3-19.3v-28.6l-14.3-28.6l-14.3-28.6v-28.6l-21.5-14.3
	l-28.6,7.2L229,196.6l-7.2-50.1l21.5-21.5h42.9l14.3,21.5l42.9,7.2l42.9-14.3L388.5,138.2z"/>
<path class="st1" d="M250.4,103.6l28.6-7.2l21.5,7.2l35.8,7.2l21.5-14.3c12,12.5,22.3,26.6,30.8,41.7l-2.1,1.2l-42.9,14.3l-42.9-7.2
	l-14.3-21.5h-42.9l-21.5,21.5l7.2,50.1l50.1,21.5l28.6-7.2l21.5,14.3v28.6l14.3,28.6l14.3,28.6v28.6l19.3,19.3
	C311,452.7,181.5,475,87.9,409C8.4,352.8-21.5,249,16.1,159.2l12.5,37.4l21.5,14.3l21.5,14.3l-14.3,14.3V261l14.3,28.6l35.8,7.2
	v71.6l14.3,35.8l21.5,7.2v-35.8l28.6-21.5v-21.5l28.6-28.6l7.2-35.8h-28.6l-21.5-35.8h-50.1L93,203.8l-21.5,21.5v-28.6l-14.3-14.3
	v-21.5l50.1-7.2l35.8-21.5l21.5-35.8l21.5-7.2l7.2-21.5l-42.9-7.2l-20.3-13.6c55-22.2,116.9-19.7,170,6.7l-28.1,14h-28.6L229,96.5
	L250.4,103.6z"/>
<g>
	<defs>
		
			<rect id="SVGID_1_" x="240.7" y="11.4" transform="matrix(0.3888 -0.9213 0.9213 0.3888 122.9286 288.6301)" width="76.7" height="80.5"/>
	</defs>
	<clipPath id="SVGID_2_">
		<use xlink:href="#SVGID_1_"  style="overflow:visible;"/>
	</clipPath>
	<g class="st2">
		<path class="st0" d="M293.9,16.3c-13.6-5.8-29.2,0.1-34.7,13.1c-1.6,3.9-2.3,8.2-1.8,12.4l5.6,43.8c0.1,0.6,0.5,1.1,1,1.3
			c0.6,0.2,1.2,0.2,1.7-0.2L301,60.3c3.4-2.6,6-6,7.7-9.9C314.2,37.3,307.5,22.1,293.9,16.3z M279,51.7c-6.8-2.9-10.1-10.5-7.4-17
			c2.7-6.5,10.5-9.4,17.3-6.6s10.1,10.5,7.4,17C293.6,51.6,285.8,54.5,279,51.7z"/>
	</g>
</g>
</svg>
