<svg width="512" height="512" viewBox="0 0 512 512" fill="none" xmlns="http://www.w3.org/2000/svg">
<g clip-path="url(#clip0)">
<path d="M474.405 181.089H431.007C421.953 166.802 406.012 157.31 387.843 157.31C383.324 157.31 378.944 157.902 374.771 159.004C363.168 139.988 342.225 127.292 318.313 127.292C305.547 127.292 293.633 130.921 283.529 137.188C265.87 106.838 232.701 86.6216 194.858 87.4544C141.767 88.6229 98.45 131.867 97.2089 184.941C97.2008 185.297 97.1938 185.652 97.1897 186.008C96.9367 205.591 112.874 221.551 132.463 221.551H416.815H437.188H474.935C485.982 221.551 494.961 212.702 495.168 201.707C495.38 190.369 485.747 181.089 474.405 181.089V181.089Z" fill="#80B6FC"/>
<path d="M474.411 181.089H431.006C421.952 166.802 406.011 157.31 387.841 157.31C383.322 157.31 378.942 157.902 374.769 159.004C363.166 139.988 342.223 127.292 318.311 127.292C305.545 127.292 293.631 130.921 283.527 137.188C265.868 106.838 232.699 86.6216 194.856 87.4544C168.872 88.0261 145.232 98.6819 127.717 115.632C139.106 110.74 151.562 107.906 164.61 107.619C195.379 106.941 223.058 120.18 241.823 141.466C248.864 149.455 259.859 152.822 270.108 149.929C275.817 148.318 281.84 147.456 288.065 147.456C307.22 147.456 324.471 155.605 336.541 168.623C341.921 174.427 349.544 177.495 357.458 177.475H357.593C371.869 177.475 384.771 183.336 394.035 192.777C399.257 198.099 406.291 201.256 413.746 201.256H444.155C455.391 201.256 464.942 210.361 464.915 221.552H474.932C486.338 221.552 495.54 212.118 495.157 200.629C494.793 189.638 485.406 181.089 474.411 181.089V181.089Z" fill="#62A4FB"/>
<path d="M300.938 221.518H267.186C260.144 210.406 247.746 203.023 233.614 203.023C230.1 203.023 226.694 203.485 223.448 204.341C214.424 189.551 198.136 179.677 179.539 179.677C169.61 179.677 160.344 182.499 152.485 187.372C138.751 163.768 112.954 148.045 83.5234 148.693C42.2331 149.603 8.5436 183.235 7.57874 224.512C7.57269 224.789 7.56765 225.065 7.56362 225.342C7.36702 240.572 19.761 252.985 34.9971 252.985H256.148H271.992H301.349C309.941 252.985 316.925 246.103 317.085 237.552C317.25 228.735 309.758 221.518 300.938 221.518V221.518Z" fill="#BED9FD"/>
<path d="M300.909 221.518H267.185C260.143 210.406 247.745 203.023 233.613 203.023C230.098 203.023 226.693 203.485 223.447 204.341C214.423 189.551 198.135 179.677 179.538 179.677C169.609 179.677 160.343 182.499 152.484 187.372C138.75 163.768 112.953 148.045 83.5224 148.693C61.8357 149.171 42.2562 158.684 28.4034 173.581C36.2009 170.713 44.566 169.049 53.276 168.858C77.9672 168.314 100.1 179.293 114.698 196.781C119.233 202.214 126.572 204.586 133.298 202.383C138.331 200.734 143.706 199.841 149.291 199.841C164.642 199.841 178.42 206.57 187.838 217.237C191.386 221.255 196.51 223.416 201.868 223.215C202.365 223.196 202.865 223.187 203.367 223.187C215.016 223.187 225.487 228.204 232.751 236.191C235.968 239.728 240.571 241.682 245.352 241.682H270.69C277.866 241.682 284.161 246.458 286.171 252.985H301.349C310.293 252.985 317.494 245.526 317.069 236.492C316.672 228.029 309.381 221.518 300.909 221.518V221.518Z" fill="#9EC8FC"/>
<path d="M324.646 237.694C324.701 234.711 324.174 231.813 323.138 229.111H364.106C368.283 229.111 371.668 225.726 371.668 221.55C371.668 217.374 368.283 213.988 364.106 213.988L271.121 213.957C262.194 202.303 248.464 195.462 233.614 195.462C231.366 195.462 229.122 195.623 226.9 195.94C215.801 180.93 198.462 172.117 179.539 172.117C171.056 172.117 162.727 173.936 155.083 177.423C144.942 162.984 130.68 152.204 114.454 146.283C129.755 115.733 160.875 95.7661 195.024 95.014C228.671 94.278 260.061 111.89 276.991 140.991C278.019 142.756 279.716 144.03 281.698 144.524C283.68 145.018 285.777 144.69 287.513 143.614C296.752 137.883 307.403 134.855 318.312 134.855C338.891 134.855 357.584 145.355 368.315 162.943C370.058 165.799 373.468 167.168 376.7 166.316C380.331 165.357 384.079 164.871 387.842 164.871C402.83 164.871 416.579 172.447 424.62 185.137C426.006 187.325 428.417 188.652 431.007 188.652H474.406C477.965 188.652 481.457 190.13 483.987 192.707C486.383 195.15 487.67 198.295 487.608 201.566C487.48 208.417 481.795 213.989 474.936 213.989H396.177C392 213.989 388.616 217.375 388.616 221.551C388.616 225.727 392 229.112 396.177 229.112H474.934C489.979 229.112 502.446 216.882 502.727 201.849C502.866 194.487 500.043 187.478 494.778 182.115C489.423 176.658 481.997 173.53 474.404 173.53H434.987C423.94 158.564 406.612 149.749 387.84 149.749C384.619 149.749 381.404 150.014 378.233 150.538C364.409 131.151 342.385 119.731 318.31 119.731C307.106 119.731 296.116 122.272 286.129 127.13C265.734 97.0244 231.389 79.0933 194.69 79.8958C153.897 80.7942 116.829 105.223 99.5701 142.335C94.27 141.429 88.8448 141.015 83.356 141.136C61.4314 141.619 40.7368 150.49 25.0843 166.115C9.43283 181.741 0.530307 202.417 0.0191431 224.351L0.00301174 225.244C-0.117974 234.602 3.44707 243.435 10.0418 250.117C16.6809 256.842 25.5441 260.547 34.9971 260.547H93.4089C97.586 260.547 100.971 257.161 100.971 252.985C100.971 248.809 97.586 245.423 93.4089 245.423H34.9971C29.6203 245.423 24.5802 243.317 20.8045 239.492C17.0741 235.712 15.0566 230.722 15.1242 225.45L15.1383 224.688C15.5587 206.681 22.8874 189.679 35.7714 176.816C48.6564 163.953 65.675 156.65 83.6908 156.253C109.249 155.682 133.089 169.072 145.95 191.175C146.977 192.941 148.674 194.215 150.656 194.709C152.637 195.203 154.737 194.876 156.472 193.799C163.391 189.507 171.368 187.238 179.54 187.238C194.953 187.238 208.955 195.104 216.994 208.28C218.735 211.133 222.14 212.507 225.379 211.652C228.062 210.943 230.832 210.585 233.614 210.585C244.691 210.585 254.853 216.185 260.799 225.566C262.185 227.753 264.596 229.079 267.186 229.079H300.938C302.852 229.079 304.756 229.739 306.296 230.934C308.394 232.563 309.572 234.924 309.525 237.41C309.442 241.829 305.774 245.423 301.35 245.423H123.654C119.477 245.423 116.093 248.809 116.093 252.985C116.093 257.161 119.477 260.547 123.654 260.547H301.349C313.958 260.548 324.409 250.295 324.646 237.694V237.694Z" fill="black"/>
<path d="M337.873 295.991C337.873 290.611 342.25 286.235 347.63 286.235C351.807 286.235 355.192 282.849 355.192 278.673C355.192 274.497 351.807 271.112 347.63 271.112C333.912 271.112 322.75 282.272 322.75 295.991C322.75 309.71 333.911 320.871 347.63 320.871H504.438C508.615 320.871 512 317.485 512 313.309C512 309.133 508.615 305.748 504.438 305.748H347.63C342.25 305.748 337.873 301.371 337.873 295.991Z" fill="black"/>
<path d="M504.438 343.798H226.644C221.265 343.798 216.888 339.421 216.888 334.041C216.888 328.661 221.265 324.284 226.644 324.284C230.821 324.284 234.206 320.898 234.206 316.722C234.206 312.546 230.821 309.161 226.644 309.161C212.927 309.161 201.765 320.321 201.765 334.041C201.765 347.76 212.926 358.921 226.644 358.921H504.438C508.615 358.921 512 355.535 512 351.359C512 347.183 508.615 343.798 504.438 343.798Z" fill="black"/>
<path d="M504.438 382.372H347.63C333.912 382.372 322.75 393.533 322.75 407.253C322.75 420.971 333.911 432.132 347.63 432.132C351.807 432.132 355.192 428.747 355.192 424.571C355.192 420.395 351.807 417.009 347.63 417.009C342.25 417.009 337.873 412.632 337.873 407.252C337.873 401.872 342.25 397.495 347.63 397.495H504.438C508.615 397.495 512 394.11 512 389.934C512 385.758 508.615 382.372 504.438 382.372Z" fill="black"/>
</g>
<defs>
<clipPath id="clip0">
<rect width="512" height="512" fill="white"/>
</clipPath>
</defs>
</svg>
