<svg width="250" height="396" viewBox="0 0 250 396" fill="none" xmlns="http://www.w3.org/2000/svg">
<path d="M241.148 221.934L241.148 221.935C253.13 254.016 251.902 288.837 237.692 319.989C223.481 351.143 197.988 374.895 165.91 386.875C152.773 391.78 139.002 394.485 124.979 394.913L124.977 394.913C124.969 394.914 124.962 394.914 124.953 394.914C124.941 394.914 124.928 394.914 124.91 394.914C124.881 394.914 124.862 394.914 124.844 394.913L124.842 394.913C110.818 394.487 97.0483 391.781 83.9094 386.875C51.8296 374.895 26.3384 351.144 12.1284 319.99L11.6735 320.197L12.1284 319.989C-2.08255 288.837 -3.30873 254.016 8.6729 221.935L8.67412 221.932C8.70421 221.849 8.74009 221.769 8.78215 221.689L8.78331 221.686L122.91 1.71658C123.298 0.969468 124.069 0.5 124.91 0.5C125.752 0.5 126.523 0.969468 126.911 1.71658L241.037 221.685C241.037 221.685 241.037 221.685 241.037 221.685C241.08 221.769 241.117 221.85 241.148 221.934Z" fill="#9DDAEC" stroke="#32608B"/>
<path d="M133.36 373.7L133.71 373.344L133.36 373.7C139.794 380.038 146.716 385.696 154.04 390.647C144.565 393.173 134.835 394.613 124.979 394.913L124.977 394.913C124.959 394.914 124.94 394.914 124.91 394.914L124.879 394.914C124.866 394.914 124.855 394.914 124.844 394.913L124.842 394.913C110.818 394.487 97.0483 391.781 83.9094 386.875C51.8296 374.895 26.3384 351.144 12.1284 319.99L11.6735 320.197L12.1284 319.989C-2.08255 288.837 -3.30873 254.016 8.6729 221.935L8.67412 221.932C8.70421 221.849 8.74009 221.769 8.78215 221.688L8.78331 221.686L120.739 5.90253L90.3742 271.541C90.3741 271.542 90.374 271.543 90.3739 271.544C90.3564 271.688 90.3483 271.833 90.3495 271.977C90.6335 310.521 105.908 346.649 133.36 373.7Z" fill="#8EC5DA" stroke="#32608B"/>
</svg>
