<svg width="512" height="512" viewBox="0 0 512 512" fill="none" xmlns="http://www.w3.org/2000/svg">
<g clip-path="url(#clip0)">
<path d="M256 504.988C393.519 504.988 505 393.507 505 255.988C505 118.469 393.519 6.98804 256 6.98804C118.481 6.98804 7 118.469 7 255.988C7 393.507 118.481 504.988 256 504.988Z" fill="#0D91BD"/>
<path d="M256 472.988C375.846 472.988 473 375.834 473 255.988C473 136.142 375.846 38.988 256 38.988C136.154 38.988 39 136.142 39 255.988C39 375.834 136.154 472.988 256 472.988Z" fill="#EBE1DC"/>
<path d="M256 72.02C254.144 72.0211 252.364 72.7589 251.051 74.0714C249.739 75.384 249.001 77.1638 249 79.02V117.52C249 119.377 249.737 121.157 251.05 122.47C252.363 123.783 254.143 124.52 256 124.52C257.857 124.52 259.637 123.783 260.95 122.47C262.262 121.157 263 119.377 263 117.52V79.02C262.999 77.1638 262.261 75.384 260.949 74.0714C259.636 72.7589 257.856 72.0211 256 72.02V72.02Z" fill="#0D91BD"/>
<path d="M353.912 165.076C354.831 165.077 355.742 164.896 356.591 164.544C357.44 164.192 358.211 163.675 358.86 163.024L386.084 135.824C386.734 135.174 387.25 134.402 387.602 133.553C387.953 132.704 388.134 131.793 388.134 130.874C388.134 129.955 387.953 129.044 387.602 128.195C387.25 127.346 386.734 126.574 386.084 125.924C385.434 125.274 384.662 124.758 383.813 124.407C382.964 124.055 382.053 123.874 381.134 123.874C380.215 123.874 379.304 124.055 378.455 124.407C377.606 124.758 376.834 125.274 376.184 125.924L348.964 153.148C347.986 154.127 347.32 155.374 347.05 156.731C346.78 158.089 346.919 159.496 347.448 160.774C347.978 162.053 348.874 163.146 350.025 163.915C351.175 164.684 352.528 165.095 353.912 165.096V165.076Z" fill="#0D91BD"/>
<path d="M153.14 348.952L125.916 376.172C125.266 376.822 124.75 377.594 124.398 378.443C124.047 379.292 123.866 380.203 123.866 381.122C123.866 382.041 124.047 382.952 124.398 383.801C124.75 384.65 125.266 385.422 125.916 386.072C126.566 386.722 127.338 387.238 128.187 387.589C129.036 387.941 129.947 388.122 130.866 388.122C131.785 388.122 132.696 387.941 133.545 387.589C134.394 387.238 135.166 386.722 135.816 386.072L163.036 358.848C164.348 357.536 165.085 355.756 165.085 353.9C165.085 352.044 164.348 350.264 163.036 348.952C161.724 347.64 159.944 346.902 158.088 346.902C156.232 346.902 154.452 347.64 153.14 348.952V348.952Z" fill="#0D91BD"/>
<path d="M432.968 248.988H394.468C392.612 248.988 390.831 249.726 389.518 251.038C388.206 252.351 387.468 254.132 387.468 255.988C387.468 257.845 388.206 259.625 389.518 260.938C390.831 262.251 392.612 262.988 394.468 262.988H432.968C434.825 262.988 436.605 262.251 437.918 260.938C439.231 259.625 439.968 257.845 439.968 255.988C439.968 254.132 439.231 252.351 437.918 251.038C436.605 249.726 434.825 248.988 432.968 248.988V248.988Z" fill="#0D91BD"/>
<path d="M117.532 248.988H79.032C77.1755 248.988 75.395 249.726 74.0822 251.038C72.7695 252.351 72.032 254.132 72.032 255.988C72.032 257.845 72.7695 259.625 74.0822 260.938C75.395 262.251 77.1755 262.988 79.032 262.988H117.532C119.388 262.988 121.169 262.251 122.482 260.938C123.794 259.625 124.532 257.845 124.532 255.988C124.532 254.132 123.794 252.351 122.482 251.038C121.169 249.726 119.388 248.988 117.532 248.988V248.988Z" fill="#0D91BD"/>
<path d="M358.86 348.952C357.548 347.64 355.768 346.902 353.912 346.902C352.056 346.902 350.276 347.64 348.964 348.952C347.652 350.264 346.914 352.044 346.914 353.9C346.914 355.756 347.652 357.536 348.964 358.848L376.184 386.072C376.834 386.722 377.606 387.238 378.455 387.589C379.304 387.941 380.215 388.122 381.134 388.122C382.053 388.122 382.964 387.941 383.813 387.589C384.662 387.238 385.434 386.722 386.084 386.072C386.734 385.422 387.25 384.65 387.601 383.801C387.953 382.952 388.134 382.041 388.134 381.122C388.134 380.203 387.953 379.292 387.601 378.443C387.25 377.594 386.734 376.822 386.084 376.172L358.86 348.952Z" fill="#0D91BD"/>
<path d="M135.816 125.904C134.503 124.591 132.723 123.854 130.866 123.854C129.009 123.854 127.229 124.591 125.916 125.904C124.603 127.217 123.866 128.997 123.866 130.854C123.866 132.711 124.603 134.491 125.916 135.804L153.14 163.024C154.452 164.336 156.232 165.074 158.088 165.074C159.944 165.074 161.724 164.336 163.036 163.024C164.348 161.712 165.085 159.932 165.085 158.076C165.085 156.22 164.348 154.44 163.036 153.128L135.816 125.904Z" fill="#0D91BD"/>
<path d="M332.764 415.424L302.244 384.904C272.35 395.642 239.65 395.642 209.756 384.904L179.236 415.424C203.181 426.964 229.419 432.956 256 432.956C282.58 432.956 308.819 426.964 332.764 415.424Z" fill="#09607D"/>
<path d="M256 0C205.368 0 155.873 15.0141 113.774 43.1438C71.6751 71.2734 38.863 111.255 19.487 158.033C0.11092 204.811 -4.95873 256.284 4.91908 305.943C14.7969 355.602 39.1785 401.217 74.9808 437.019C110.783 472.822 156.398 497.203 206.057 507.081C255.716 516.959 307.189 511.889 353.967 492.513C400.745 473.137 440.727 440.325 468.856 398.226C496.986 356.127 512 306.632 512 256C511.923 188.128 484.927 123.059 436.934 75.066C388.942 27.0735 323.872 0.077284 256 0V0ZM256 498C208.137 498 161.349 483.807 121.552 457.216C81.7554 430.624 50.7377 392.829 32.4213 348.609C14.1049 304.39 9.31245 255.732 18.6501 208.788C27.9877 161.845 51.036 118.724 84.8803 84.8802C118.725 51.0359 161.845 27.9876 208.788 18.65C255.732 9.31234 304.39 14.1047 348.61 32.4212C392.829 50.7376 430.624 81.7553 457.216 121.552C483.807 161.349 498 208.137 498 256C497.928 320.16 472.409 381.672 427.04 427.04C381.672 472.409 320.16 497.928 256 498V498Z" fill="black"/>
<path d="M256 32C224.128 32.026 192.629 38.8486 163.603 52.0127C134.577 65.1768 108.693 84.3797 87.676 108.34C87.0693 109.031 86.6046 109.834 86.3084 110.705C86.0122 111.575 85.8904 112.495 85.9498 113.413C86.0698 115.265 86.921 116.995 88.316 118.22C89.711 119.445 91.5357 120.066 93.3885 119.946C95.2414 119.826 96.9707 118.975 98.196 117.58C130.63 80.6553 174.992 56.2828 223.552 48.7103C272.111 41.1378 321.789 50.8455 363.925 76.1416C406.062 101.438 437.985 140.718 454.132 187.136C470.279 233.554 469.626 284.167 452.285 330.153C434.945 376.138 402.017 414.581 359.241 438.78C316.465 462.98 266.554 471.401 218.206 462.577C169.859 453.753 126.14 428.243 94.6711 390.493C63.202 352.742 45.9776 305.146 46 256C46 254.143 45.2625 252.363 43.9497 251.05C42.637 249.737 40.8565 249 39 249C37.1435 249 35.363 249.737 34.0503 251.05C32.7375 252.363 32 254.143 32 256C32 300.303 45.1374 343.611 69.7508 380.448C94.3642 417.284 129.348 445.995 170.279 462.949C211.21 479.903 256.248 484.339 299.7 475.696C343.152 467.053 383.065 445.719 414.392 414.392C445.719 383.065 467.053 343.152 475.696 299.7C484.339 256.248 479.903 211.21 462.949 170.279C445.995 129.348 417.284 94.3642 380.448 69.7508C343.611 45.1374 300.303 32 256 32V32Z" fill="black"/>
<path d="M46.468 199.024C47.1337 199.231 47.8269 199.336 48.524 199.336C50.0175 199.332 51.4707 198.851 52.6716 197.963C53.8726 197.075 54.7584 195.827 55.2 194.4C57.7961 185.96 60.9251 177.692 64.568 169.648C64.9722 168.807 65.2043 167.894 65.2506 166.962C65.297 166.03 65.1566 165.098 64.8379 164.221C64.5191 163.344 64.0283 162.54 63.3943 161.855C62.7603 161.17 61.9959 160.619 61.146 160.234C60.2961 159.849 59.3778 159.638 58.4451 159.612C57.5123 159.587 56.5839 159.749 55.7144 160.087C54.8449 160.426 54.0517 160.934 53.3816 161.584C52.7115 162.233 52.1778 163.01 51.812 163.868C47.9244 172.448 44.5844 181.266 41.812 190.268C41.5411 191.149 41.4467 192.074 41.5342 192.991C41.6217 193.908 41.8895 194.799 42.322 195.613C42.7546 196.426 43.3435 197.146 44.055 197.732C44.7664 198.317 45.5864 198.756 46.468 199.024V199.024Z" fill="black"/>
<path d="M256 124.52C257.856 124.519 259.636 123.781 260.949 122.469C262.261 121.156 262.999 119.376 263 117.52V79.02C263 77.1635 262.262 75.383 260.95 74.0703C259.637 72.7575 257.857 72.02 256 72.02C254.143 72.02 252.363 72.7575 251.05 74.0703C249.737 75.383 249 77.1635 249 79.02V117.52C249.001 119.376 249.739 121.156 251.051 122.469C252.364 123.781 254.144 124.519 256 124.52V124.52Z" fill="black"/>
<path d="M376.184 125.904L348.964 153.128C347.652 154.44 346.914 156.22 346.914 158.076C346.914 159.932 347.652 161.712 348.964 163.024C350.276 164.336 352.056 165.074 353.912 165.074C355.768 165.074 357.548 164.336 358.86 163.024L386.084 135.824C386.734 135.174 387.25 134.402 387.601 133.553C387.953 132.704 388.134 131.793 388.134 130.874C388.134 129.955 387.953 129.044 387.601 128.195C387.25 127.346 386.734 126.574 386.084 125.924C385.434 125.274 384.662 124.758 383.813 124.407C382.964 124.055 382.053 123.874 381.134 123.874C380.215 123.874 379.304 124.055 378.455 124.407C377.606 124.758 376.834 125.274 376.184 125.924V125.904Z" fill="black"/>
<path d="M153.14 348.952L125.916 376.172C125.266 376.822 124.75 377.594 124.399 378.443C124.047 379.292 123.866 380.203 123.866 381.122C123.866 382.041 124.047 382.952 124.399 383.801C124.75 384.65 125.266 385.422 125.916 386.072C126.566 386.722 127.338 387.238 128.187 387.589C129.036 387.941 129.947 388.122 130.866 388.122C131.785 388.122 132.696 387.941 133.545 387.589C134.394 387.238 135.166 386.722 135.816 386.072L163.036 358.848C164.348 357.536 165.086 355.756 165.086 353.9C165.086 352.044 164.348 350.264 163.036 348.952C161.724 347.64 159.944 346.902 158.088 346.902C156.232 346.902 154.452 347.64 153.14 348.952V348.952Z" fill="black"/>
<path d="M394.468 262.988H432.968C434.825 262.988 436.605 262.251 437.918 260.938C439.231 259.625 439.968 257.845 439.968 255.988C439.968 254.132 439.231 252.351 437.918 251.038C436.605 249.726 434.825 248.988 432.968 248.988H394.468C392.612 248.988 390.831 249.726 389.518 251.038C388.206 252.351 387.468 254.132 387.468 255.988C387.468 257.845 388.206 259.625 389.518 260.938C390.831 262.251 392.612 262.988 394.468 262.988V262.988Z" fill="black"/>
<path d="M79.032 262.988H117.532C119.388 262.988 121.169 262.251 122.482 260.938C123.794 259.625 124.532 257.845 124.532 255.988C124.532 254.132 123.794 252.351 122.482 251.038C121.169 249.726 119.388 248.988 117.532 248.988H79.032C77.1755 248.988 75.395 249.726 74.0822 251.038C72.7695 252.351 72.032 254.132 72.032 255.988C72.032 257.845 72.7695 259.625 74.0822 260.938C75.395 262.251 77.1755 262.988 79.032 262.988V262.988Z" fill="black"/>
<path d="M348.964 358.848L376.184 386.072C376.834 386.722 377.606 387.238 378.455 387.589C379.304 387.941 380.215 388.122 381.134 388.122C382.053 388.122 382.964 387.941 383.813 387.589C384.662 387.238 385.434 386.722 386.084 386.072C386.734 385.422 387.25 384.65 387.601 383.801C387.953 382.952 388.134 382.041 388.134 381.122C388.134 380.203 387.953 379.292 387.601 378.443C387.25 377.594 386.734 376.822 386.084 376.172L358.86 348.952C357.548 347.64 355.768 346.902 353.912 346.902C352.056 346.902 350.276 347.64 348.964 348.952C347.652 350.264 346.914 352.044 346.914 353.9C346.914 355.756 347.652 357.536 348.964 358.848V358.848Z" fill="black"/>
<path d="M163.036 153.128L135.836 125.904C134.523 124.591 132.743 123.854 130.886 123.854C129.029 123.854 127.249 124.591 125.936 125.904C124.623 127.217 123.886 128.997 123.886 130.854C123.886 132.711 124.623 134.491 125.936 135.804L153.16 163.024C153.81 163.674 154.581 164.189 155.43 164.541C156.279 164.893 157.189 165.074 158.108 165.074C159.027 165.074 159.937 164.893 160.786 164.541C161.635 164.189 162.406 163.674 163.056 163.024C163.706 162.374 164.221 161.603 164.573 160.754C164.925 159.905 165.106 158.995 165.106 158.076C165.106 157.157 164.925 156.247 164.573 155.398C164.221 154.549 163.706 153.778 163.056 153.128H163.036Z" fill="black"/>
<path d="M204.8 379.956L174.28 410.476C173.49 411.266 172.901 412.233 172.561 413.298C172.222 414.362 172.142 415.492 172.328 416.593C172.514 417.695 172.962 418.736 173.633 419.629C174.303 420.522 175.178 421.242 176.184 421.728C201.059 433.79 228.355 440.024 256 439.956C257.856 439.956 259.637 439.219 260.95 437.906C262.262 436.593 263 434.813 263 432.956C263 431.1 262.262 429.319 260.95 428.006C259.637 426.694 257.856 425.956 256 425.956C233.825 426.012 211.859 421.677 191.368 413.2L211.62 392.948C240.473 402.264 271.527 402.264 300.38 392.948L327.812 420.38C329.132 421.655 330.9 422.361 332.735 422.346C334.571 422.33 336.327 421.594 337.625 420.297C338.923 418.999 339.659 417.244 339.676 415.408C339.692 413.573 338.987 411.805 337.712 410.484L307.192 379.964C306.255 379.023 305.068 378.37 303.772 378.08C302.476 377.79 301.125 377.876 299.876 378.328C271.504 388.466 240.496 388.466 212.124 378.328C210.875 377.875 209.522 377.788 208.225 378.076C206.928 378.365 205.74 379.017 204.8 379.956V379.956Z" fill="black"/>
<path d="M266.852 273.712L361.036 255.876L266.852 238.04C262.946 231.476 256.993 226.377 249.908 223.524C242.822 220.671 234.997 220.223 227.632 222.249C220.268 224.274 213.772 228.662 209.142 234.736C204.513 240.811 202.005 248.238 202.005 255.876C202.005 263.514 204.513 270.941 209.142 277.016C213.772 283.09 220.268 287.478 227.632 289.503C234.997 291.529 242.822 291.081 249.908 288.228C256.993 285.375 262.946 280.276 266.852 273.712V273.712Z" fill="#FFB655"/>
<path d="M236.924 214C229.733 213.992 222.661 215.835 216.39 219.353C210.119 222.871 204.859 227.944 201.117 234.084C197.375 240.225 195.277 247.225 195.026 254.411C194.774 261.598 196.377 268.728 199.681 275.115C202.984 281.501 207.877 286.93 213.887 290.878C219.897 294.825 226.823 297.158 233.996 297.653C241.17 298.147 248.35 296.786 254.845 293.701C261.34 290.615 266.931 285.909 271.08 280.036L362.34 262.752C363.94 262.447 365.383 261.593 366.422 260.338C367.46 259.083 368.028 257.505 368.028 255.876C368.028 254.247 367.46 252.669 366.422 251.414C365.383 250.159 363.94 249.305 362.34 249L271.08 231.716C267.205 226.26 262.085 221.807 256.145 218.726C250.204 215.645 243.615 214.025 236.924 214V214ZM260.844 241.628C261.351 242.478 262.033 243.211 262.845 243.777C263.656 244.344 264.579 244.732 265.552 244.916L323.416 255.876L265.552 266.836C264.579 267.019 263.657 267.407 262.845 267.973C262.034 268.539 261.351 269.271 260.844 270.12C257.723 275.368 252.966 279.447 247.303 281.729C241.639 284.012 235.383 284.372 229.496 282.753C223.608 281.135 218.415 277.629 214.713 272.773C211.012 267.917 209.007 261.98 209.007 255.874C209.007 249.768 211.012 243.831 214.713 238.975C218.415 234.119 223.608 230.613 229.496 228.995C235.383 227.377 241.639 227.736 247.303 230.019C252.966 232.301 257.723 236.38 260.844 241.628V241.628Z" fill="black"/>
</g>
<defs>
<clipPath id="clip0">
<rect width="512" height="512" fill="white"/>
</clipPath>
</defs>
</svg>
