<svg width="240" height="363" viewBox="0 0 240 363" fill="none" xmlns="http://www.w3.org/2000/svg">
<path d="M200 243C200 237.477 195.523 233 190 233C184.477 233 180 237.477 180 243C180 276.086 153.086 303 120 303C114.477 303 110 307.477 110 313C110 318.523 114.477 323 120 323C164.113 323 200 287.113 200 243Z" fill="black"/>
<path d="M20 233C20 238.523 15.5234 243 10 243C4.47656 243 0 238.523 0 233C0 227.477 4.47656 223 10 223C15.5234 223 20 227.477 20 233Z" fill="black"/>
<path d="M128.43 4.61719C126.59 1.74219 123.414 0 120 0C116.586 0 113.41 1.74219 111.57 4.61719C108.691 9.12891 40.7188 115.926 12.3438 191.219C10.3945 196.387 13.0078 202.156 18.1758 204.102C23.3399 206.051 29.1094 203.441 31.0586 198.273C52.9102 140.281 100.664 60.3086 120.027 28.8555C154.215 84.1406 220 199.508 220 243C220 298.141 175.141 343 120 343C75.3555 343 35.7617 313.02 23.7109 270.09C22.2188 264.773 16.6992 261.672 11.3789 263.164C6.06251 264.656 2.96485 270.18 4.45313 275.496C18.918 327.016 66.4336 363 120 363C186.168 363 240 309.168 240 243C240 187.879 156.953 49.2148 128.43 4.61719V4.61719Z" fill="black"/>
</svg>
