<svg width="423" height="396" viewBox="0 0 423 396" fill="none" xmlns="http://www.w3.org/2000/svg">
<path d="M418.267 280.78C418.228 280.676 418.183 280.575 418.132 280.476L361.859 172.015C361.385 171.103 360.444 170.529 359.415 170.529C358.386 170.529 357.445 171.102 356.971 172.015L300.698 280.476C300.646 280.575 300.601 280.676 300.563 280.78C294.502 297.008 295.123 314.624 302.312 330.382C309.499 346.141 322.394 358.157 338.624 364.218C345.27 366.699 352.238 368.067 359.331 368.284C359.359 368.285 359.387 368.285 359.415 368.285C359.443 368.285 359.471 368.285 359.499 368.284C366.59 368.067 373.557 366.699 380.204 364.218C413.699 351.709 430.775 314.278 418.267 280.78Z" fill="#5ABCE2"/>
<path d="M418.266 280.78C418.227 280.676 418.182 280.575 418.131 280.476L361.858 172.015C361.384 171.103 360.443 170.529 359.414 170.529C359.409 170.529 359.403 170.531 359.397 170.531L337.245 299.352C337.224 299.473 337.211 299.595 337.206 299.717C336.268 318.785 342.81 337.073 355.628 351.216C361.12 357.276 367.488 362.254 374.468 366.052C376.402 365.528 378.316 364.924 380.203 364.219C413.698 351.709 430.774 314.278 418.266 280.78Z" fill="#68CCEA"/>
<path d="M241.616 221.76C241.577 221.655 241.533 221.555 241.482 221.456L127.354 1.486C126.88 0.574 125.939 0 124.91 0C123.881 0 122.94 0.574 122.466 1.486L8.33949 221.456C8.28749 221.555 8.24249 221.656 8.20449 221.76C-3.82351 253.965 -2.59251 288.924 11.6735 320.197C25.9385 351.472 51.5305 375.317 83.7345 387.343C96.9245 392.269 110.748 394.985 124.826 395.413C124.854 395.414 124.882 395.414 124.91 395.414C124.938 395.414 124.966 395.414 124.994 395.413C139.071 394.983 152.896 392.268 166.084 387.343C198.287 375.317 223.88 351.471 238.146 320.197C252.411 288.924 253.644 253.965 241.616 221.76Z" fill="#68CCEA"/>
<path d="M133.71 373.344C106.353 346.386 91.1325 310.385 90.8495 271.973C90.8485 271.85 90.8555 271.725 90.8705 271.602L121.543 3.26599L8.33949 221.456C8.28749 221.555 8.24249 221.656 8.20449 221.76C-3.82351 253.965 -2.59251 288.924 11.6735 320.197C25.9385 351.472 51.5305 375.317 83.7345 387.343C96.9245 392.269 110.748 394.985 124.826 395.413C124.854 395.414 124.882 395.414 124.91 395.414C124.938 395.414 124.966 395.414 124.994 395.413C135.257 395.1 145.383 393.557 155.229 390.843C147.594 385.765 140.388 379.922 133.71 373.344Z" fill="#5ABCE2"/>
</svg>
